<?xml version="1.0" standalone="no"?>
<!DOCTYPE svg PUBLIC "-//W3C//DTD SVG 20010904//EN"
 "http://www.w3.org/TR/2001/REC-SVG-20010904/DTD/svg10.dtd">
<svg version="1.0" xmlns="http://www.w3.org/2000/svg"
 width="540.000000pt" height="540.000000pt" viewBox="0 0 540.000000 540.000000"
 preserveAspectRatio="xMidYMid meet">

<g transform="translate(0.000000,540.000000) scale(0.100000,-0.100000)"
fill="#000000" stroke="none">
<path d="M845 5080 c-93 -24 -137 -44 -216 -95 -117 -76 -199 -170 -264 -306
-70 -146 -66 -18 -63 -2009 l3 -1795 23 -65 c47 -129 92 -201 187 -296 73 -74
106 -98 175 -132 47 -23 121 -51 164 -62 78 -20 114 -20 1846 -20 1730 0 1768
0 1846 20 136 34 236 91 339 195 95 95 140 165 187 295 l23 65 3 1793 c2 1771
2 1795 -18 1879 -32 135 -88 232 -194 339 -104 103 -203 161 -332 194 -75 20
-118 20 -1858 19 -1704 0 -1784 -1 -1851 -19z m2708 -926 l27 -6 0 -268 0
-268 -212 -4 c-168 -4 -223 -9 -260 -22 -56 -21 -112 -78 -129 -133 -7 -23
-13 -136 -16 -280 l-5 -243 302 0 303 0 -6 -37 c-3 -21 -20 -153 -38 -293 -18
-140 -37 -261 -42 -267 -7 -10 -72 -13 -263 -13 l-254 0 0 -770 0 -770 -310 0
-310 0 0 770 0 770 -260 0 -260 0 0 305 0 305 260 0 260 0 0 274 c0 200 4 297
15 361 41 232 165 415 347 510 163 86 221 96 553 90 149 -2 282 -7 298 -11z"/>
</g>
</svg>
