<?xml version="1.0" encoding="UTF-8"?>
<svg version="1.1" xmlns="http://www.w3.org/2000/svg" width="100" height="100">
<path d="M0 0 C0.67238205 -0.00686325 1.3447641 -0.0137265 2.03752136 -0.02079773 C4.2440649 -0.03898993 6.44989223 -0.0352394 8.65649414 -0.02954102 C10.20056894 -0.03410656 11.74464171 -0.03941324 13.28871155 -0.04542542 C16.51905593 -0.05434165 19.74915289 -0.05195059 22.97949219 -0.04199219 C27.10648552 -0.03050545 31.23262282 -0.0507162 35.35950375 -0.07990932 C38.54669056 -0.0983105 41.73367371 -0.09797112 44.92090034 -0.0922718 C46.44185143 -0.09211906 47.96281674 -0.09812444 49.48371696 -0.11056328 C64.67903122 -0.21734012 64.67903122 -0.21734012 70.00415039 4.40405273 C72.71225488 8.86813087 73.38501736 12.21128327 73.40820312 17.39990234 C73.41506638 18.07228439 73.42192963 18.74466644 73.42900085 19.43742371 C73.44719305 21.64396724 73.44344252 23.84979458 73.43774414 26.05639648 C73.44230968 27.60047128 73.44761636 29.14454405 73.45362854 30.68861389 C73.46254478 33.91895827 73.46015372 37.14905524 73.45019531 40.37939453 C73.43870857 44.50638787 73.45891933 48.63252516 73.48811245 52.75940609 C73.50651363 55.9465929 73.50617424 59.13357605 73.50047493 62.32080269 C73.50032219 63.84175378 73.50632757 65.36271908 73.5187664 66.88361931 C73.62554324 82.07893357 73.62554324 82.07893357 69.00415039 87.40405273 C64.54007225 90.11215722 61.19691985 90.78491971 56.00830078 90.80810547 C55.33591873 90.81496872 54.66353668 90.82183197 53.97077942 90.8289032 C51.76423588 90.8470954 49.55840855 90.84334487 47.35180664 90.83764648 C45.80773184 90.84221203 44.26365908 90.84751871 42.71958923 90.85353088 C39.48924485 90.86244712 36.25914789 90.86005606 33.02880859 90.85009766 C28.90181526 90.83861091 24.77567796 90.85882167 20.64879704 90.88801479 C17.46161022 90.90641597 14.27462707 90.90607659 11.08740044 90.90037727 C9.56644935 90.90022453 8.04548405 90.90622991 6.52458382 90.91866875 C-8.67073044 91.02544559 -8.67073044 91.02544559 -13.99584961 86.40405273 C-16.7039541 81.9399746 -17.37671658 78.5968222 -17.39990234 73.40820312 C-17.40676559 72.73582108 -17.41362885 72.06343903 -17.42070007 71.37068176 C-17.43889227 69.16413823 -17.43514174 66.95831089 -17.42944336 64.75170898 C-17.4340089 63.20763419 -17.43931558 61.66356142 -17.44532776 60.11949158 C-17.454244 56.8891472 -17.45185294 53.65905023 -17.44189453 50.42871094 C-17.43040779 46.3017176 -17.45061855 42.1755803 -17.47981167 38.04869938 C-17.49821285 34.86151257 -17.49787346 31.67452942 -17.49217415 28.48730278 C-17.4920214 26.96635169 -17.49802679 25.44538639 -17.51046562 23.92448616 C-17.61724246 8.7291719 -17.61724246 8.7291719 -12.99584961 3.40405273 C-8.53177147 0.69594825 -5.18861907 0.02318576 0 0 Z " fill="#1A4789" transform="translate(21.995849609375,4.595947265625)"/>
<path d="M0 0 C1.25425781 0.02707031 2.50851563 0.05414062 3.80078125 0.08203125 C4.75339844 0.11683594 5.70601562 0.15164062 6.6875 0.1875 C6.6875 3.4875 6.6875 6.7875 6.6875 10.1875 C5.223125 10.331875 3.75875 10.47625 2.25 10.625 C-0.83096698 10.72245826 -0.83096698 10.72245826 -3.3125 12.1875 C-3.54613881 14.03641946 -3.72553635 15.89238031 -3.875 17.75 C-4.019375 19.544375 -4.16375 21.33875 -4.3125 23.1875 C-0.6825 23.1875 2.9475 23.1875 6.6875 23.1875 C6.3575 26.8175 6.0275 30.4475 5.6875 34.1875 C2.3875 34.1875 -0.9125 34.1875 -4.3125 34.1875 C-4.3125 43.7575 -4.3125 53.3275 -4.3125 63.1875 C-8.2725 63.1875 -12.2325 63.1875 -16.3125 63.1875 C-16.3125 53.6175 -16.3125 44.0475 -16.3125 34.1875 C-19.2825 34.1875 -22.2525 34.1875 -25.3125 34.1875 C-25.3125 30.5575 -25.3125 26.9275 -25.3125 23.1875 C-22.3425 23.1875 -19.3725 23.1875 -16.3125 23.1875 C-16.35890625 22.33027344 -16.4053125 21.47304688 -16.453125 20.58984375 C-16.67582244 13.53510692 -16.81554022 8.78587432 -12.3125 3.1875 C-8.19054583 0.04450995 -5.11329677 -0.14336346 0 0 Z " fill="#F8F9FB" transform="translate(59.3125,22.8125)"/>
</svg>
