<?xml version="1.0" encoding="UTF-8"?>
<svg version="1.1" xmlns="http://www.w3.org/2000/svg" width="25" height="25">
<path d="M0 0 C1.40958984 -0.00193359 1.40958984 -0.00193359 2.84765625 -0.00390625 C3.83636719 -0.00003906 4.82507813 0.00382812 5.84375 0.0078125 C7.32681641 0.00201172 7.32681641 0.00201172 8.83984375 -0.00390625 C9.77957031 -0.00261719 10.71929688 -0.00132813 11.6875 0 C12.55568359 0.00112793 13.42386719 0.00225586 14.31835938 0.00341797 C16.34375 0.1328125 16.34375 0.1328125 17.34375 1.1328125 C17.44274523 2.68236809 17.47454524 4.23634923 17.4765625 5.7890625 C17.47849609 7.19865234 17.47849609 7.19865234 17.48046875 8.63671875 C17.47660156 9.62542969 17.47273438 10.61414063 17.46875 11.6328125 C17.47455078 13.11587891 17.47455078 13.11587891 17.48046875 14.62890625 C17.47917969 15.56863281 17.47789063 16.50835938 17.4765625 17.4765625 C17.47543457 18.34474609 17.47430664 19.21292969 17.47314453 20.10742188 C17.34375 22.1328125 17.34375 22.1328125 16.34375 23.1328125 C14.79419441 23.23180773 13.24021327 23.26360774 11.6875 23.265625 C10.27791016 23.26755859 10.27791016 23.26755859 8.83984375 23.26953125 C7.85113281 23.26566406 6.86242187 23.26179688 5.84375 23.2578125 C4.85503906 23.26167969 3.86632812 23.26554687 2.84765625 23.26953125 C1.90792969 23.26824219 0.96820312 23.26695313 0 23.265625 C-0.86818359 23.26449707 -1.73636719 23.26336914 -2.63085938 23.26220703 C-4.65625 23.1328125 -4.65625 23.1328125 -5.65625 22.1328125 C-5.75524523 20.58325691 -5.78704524 19.02927577 -5.7890625 17.4765625 C-5.79035156 16.53683594 -5.79164063 15.59710938 -5.79296875 14.62890625 C-5.78910156 13.64019531 -5.78523437 12.65148437 -5.78125 11.6328125 C-5.78511719 10.64410156 -5.78898438 9.65539062 -5.79296875 8.63671875 C-5.79167969 7.69699219 -5.79039062 6.75726562 -5.7890625 5.7890625 C-5.78793457 4.92087891 -5.78680664 4.05269531 -5.78564453 3.15820312 C-5.53743012 -0.72705485 -3.37439254 0.00438395 0 0 Z " fill="#1F4B8B" transform="translate(6.65625,0.8671875)"/>
<path d="M0 0 C1.32 0 2.64 0 4 0 C4 0.66 4 1.32 4 2 C3.34 2 2.68 2 2 2 C2 3.32 2 4.64 2 6 C2.66 6 3.32 6 4 6 C4 6.66 4 7.32 4 8 C3.34 8 2.68 8 2 8 C2 10.31 2 12.62 2 15 C1.01 15 0.02 15 -1 15 C-1 12.69 -1 10.38 -1 8 C-1.66 8 -2.32 8 -3 8 C-3 7.34 -3 6.68 -3 6 C-2.34 6 -1.68 6 -1 6 C-1.0309375 4.7934375 -1.0309375 4.7934375 -1.0625 3.5625 C-1 1 -1 1 0 0 Z " fill="#F2F4F8" transform="translate(12,6)"/>
</svg>
